<svg xmlns="http://www.w3.org/2000/svg" xmlns:xlink="http://www.w3.org/1999/xlink" width="765" height="266" viewBox="0 0 765 266">
    <defs>
        <path id="a" d="M0 .055v143.007h141.029V.055H0z"/>
        <path id="c" d="M.134.515h32.35v32.35H.134V.514z"/>
        <path id="e" d="M.329.515h32.35v32.35H.33V.514z"/>
        <path id="g" d="M131.964.811v142.06H.691V.811z"/>
    </defs>
    <g fill="none" fill-rule="evenodd">
        <path fill="#99C340" d="M402.842 176.798c0 20.648 7.463 30.967 22.4 30.967 12.295 0 20.99-4.733 26.096-14.195-10.56-3.324-15.836-13.664-15.836-31.008V4.386l-32.66 7.89v164.522"/>
        <path fill="#29ABE2" d="M518.9 106.211s7.426-7.457 12.774-10.098c5.344-2.639 10.367-3.965 15.08-3.965 10.181 0 17.513 2.688 22.004 8.052 4.492 5.365 6.743 13.88 6.743 25.55v79.643h31.777v-84.66c0-17.488-4.707-31.12-14.111-40.892-9.41-9.766-22.242-14.657-38.494-14.657-26.149 0-35.826 12.853-35.826 12.853l.053 28.174z"/>
        <path fill="#99C340" d="M467.881 64.758V91.48h17.812v113.812h33.156V64.758z"/>
        <g transform="translate(0 64.485)">
            <mask id="b" fill="#fff">
                <use xlink:href="#a"/>
            </mask>
            <path fill="#FCC015" d="M141.029.055H106.39L70.023 85.662 36.127.055H0l63.838 143.007h11.87z" mask="url(#b)"/>
        </g>
        <path fill="#FCC015" d="M205.926 205.073V64.543h-50.5V91.26h17.813v113.812z"/>
        <path fill="#99C340" d="M355.35 80.874c-12.633-13.006-29.247-19.512-49.863-19.512-10.157 0-19.539 2.587-28.169 7.731v27.754c5.027-4.739 12.027-7.137 21.037-7.137 27.386 0 41.086 14.326 41.086 42.974 0 16.61-3.314 28.695-9.94 36.248-6.637 7.562-17.892 11.333-33.776 11.333-7.073 0-12.875-2.109-17.43-6.306 1.968 10.43 6.916 16.893 14.853 19.396-2.529 4.697-5.953 8.226-10.26 10.592 6.468 2.215 13.547 3.393 20.752 3.393 21.711 0 38.914-6.853 51.61-20.559 12.697-13.71 19.044-32.345 19.044-55.912 0-20.322-6.316-36.989-18.944-49.995"/>
        <path fill="#FCC015" d="M278.293 173.962c-.651-3.439-.978-7.31-.978-11.612V4.17l-32.66 7.888v164.523c0 20.643 7.463 30.967 22.4 30.967 6.19 0 11.464-1.199 15.83-3.598 4.307-2.366 7.73-5.895 10.266-10.597-7.942-2.503-12.89-8.967-14.858-19.39"/>
        <g transform="translate(172 .485)">
            <mask id="d" fill="#fff">
                <use xlink:href="#c"/>
            </mask>
            <path fill="#E74328" d="M4.851 28.116c3.146 3.166 6.964 4.748 11.461 4.748 4.491 0 8.31-1.581 11.454-4.748 3.146-3.166 4.718-6.99 4.718-11.476 0-4.476-1.572-8.284-4.718-11.419C24.622 2.081 20.803.514 16.312.514c-4.497 0-8.315 1.568-11.46 4.707C1.705 8.357.133 12.165.133 16.64c0 4.485 1.572 8.31 4.717 11.476" mask="url(#d)"/>
        </g>
        <g transform="translate(483 .485)">
            <mask id="f" fill="#fff">
                <use xlink:href="#e"/>
            </mask>
            <path fill="#E74328" d="M5.046 28.116c3.145 3.166 6.963 4.748 11.46 4.748 4.491 0 8.305-1.581 11.456-4.748 3.145-3.166 4.717-6.99 4.717-11.476 0-4.476-1.573-8.284-4.718-11.419-3.15-3.14-6.963-4.707-11.454-4.707-4.498 0-8.316 1.568-11.46 4.707C1.897 8.357.329 12.165.329 16.64c0 4.485 1.568 8.31 4.718 11.476" mask="url(#f)"/>
        </g>
        <path fill="#E74328" d="M488.046 260.736c3.146 3.166 6.964 4.749 11.46 4.749 4.492 0 8.306-1.583 11.456-4.75 3.144-3.165 4.717-6.988 4.717-11.475 0-4.475-1.572-8.283-4.717-11.418-3.15-3.14-6.964-4.712-11.455-4.712-4.498 0-8.315 1.573-11.46 4.712-3.15 3.135-4.719 6.943-4.719 11.418 0 4.487 1.569 8.31 4.719 11.476"/>
        <g transform="translate(633 63.485)">
            <mask id="h" fill="#fff">
                <use xlink:href="#g"/>
            </mask>
            <path fill="#29ABE2" d="M90.116 104.898c-5.843 7.811-13.753 11.718-23.725 11.718-21.742 0-32.608-15.03-32.608-45.099 0-14.006 2.935-24.919 8.82-32.728 5.885-7.816 13.81-11.724 23.788-11.724 21.659 0 32.487 14.815 32.487 44.452 0 14.443-2.924 25.571-8.762 33.381m24.624-85.164C103.26 7.122 87.144.811 66.39.811c-19.727 0-35.61 6.563-47.648 19.691C6.708 33.628.69 50.637.69 71.517c0 21.568 5.765 38.857 17.288 51.852 11.518 13.001 27.658 19.502 48.412 19.502 20.328 0 36.337-6.438 48.029-19.313 11.69-12.864 17.545-30.215 17.545-52.04 0-21.906-5.744-39.167-17.225-51.784" mask="url(#h)"/>
        </g>
    </g>
</svg>
